<svg xmlns="http://www.w3.org/2000/svg" width="140" height="138.526" viewBox="0 0 140 138.526"><path fill="#8CC34B" d="M83.08 0c0 3.513-2.85 6.36-6.36 6.36 3.512 0 6.36 2.846 6.36 6.358 0-3.513 2.847-6.358 6.358-6.358-3.512 0-6.357-2.847-6.357-6.36zM9.117 95.573c0 3.514-2.85 6.36-6.36 6.36 3.512 0 6.36 2.845 6.36 6.358 0-3.513 2.846-6.358 6.357-6.358-3.51 0-6.357-2.846-6.357-6.36zM31.432 33.578c0 2.494-2.02 4.515-4.515 4.515 2.493 0 4.515 2.02 4.515 4.517 0-2.495 2.02-4.517 4.515-4.517-2.494 0-4.515-2.02-4.515-4.515zM66.806 116.893c0 2.494-2.02 4.514-4.515 4.514 2.494 0 4.516 2.02 4.516 4.518 0-2.496 2.02-4.518 4.515-4.518-2.493 0-4.514-2.02-4.514-4.514zM135.485 104.258c0 2.494-2.02 4.514-4.514 4.514 2.493 0 4.515 2.02 4.515 4.518 0-2.496 2.02-4.518 4.516-4.518-2.494 0-4.515-2.02-4.515-4.514z"/><linearGradient id="a" gradientUnits="userSpaceOnUse" x1="120.993" y1="66.724" x2="135.485" y2="66.724"><stop offset="0" stop-color="#F79D2A"/><stop offset="1" stop-color="#FFCD2E"/></linearGradient><path fill="url(#a)" d="M128.24 59.478c0 4.002-3.247 7.248-7.247 7.248 4 0 7.248 3.244 7.248 7.246 0-4.002 3.243-7.246 7.245-7.246-4.002 0-7.244-3.247-7.244-7.248z"/><linearGradient id="b" gradientUnits="userSpaceOnUse" x1="35.946" y1="6.359" x2="44.056" y2="6.359"><stop offset="0" stop-color="#F79D2A"/><stop offset="1" stop-color="#FFCD2E"/></linearGradient><path fill="url(#b)" d="M40 2.305c0 2.24-1.815 4.054-4.054 4.054C38.184 6.36 40 8.172 40 10.414c0-2.24 1.815-4.056 4.056-4.056C41.816 6.357 40 4.544 40 2.304z"/><linearGradient id="c" gradientUnits="userSpaceOnUse" y1="31.375" x2="14.363" y2="31.375"><stop offset="0" stop-color="#F79D2A"/><stop offset="1" stop-color="#FFCD2E"/></linearGradient><path fill="url(#c)" d="M7.18 24.192c0 3.968-3.216 7.18-7.18 7.18 3.964 0 7.18 3.216 7.18 7.185 0-3.97 3.216-7.184 7.184-7.184-3.968 0-7.183-3.213-7.183-7.18z"/><linearGradient id="d" gradientUnits="userSpaceOnUse" x1="93.932" y1="131.344" x2="108.295" y2="131.344"><stop offset="0" stop-color="#F79D2A"/><stop offset="1" stop-color="#FFCD2E"/></linearGradient><path fill="url(#d)" d="M101.114 124.163c0 3.97-3.22 7.182-7.182 7.182 3.963 0 7.182 3.215 7.182 7.182 0-3.967 3.215-7.182 7.182-7.182-3.967 0-7.182-3.214-7.182-7.182z"/><linearGradient id="e" gradientUnits="userSpaceOnUse" x1="47.881" y1="58.098" x2="92.648" y2="58.098"><stop offset="0" stop-color="#F79D2A"/><stop offset="1" stop-color="#FFCD2E"/></linearGradient><path fill="url(#e)" stroke="#515151" stroke-width="2" stroke-miterlimit="10" d="M92.45 82.727c.445-3.342 0-5.535 0-5.535v-28.31c-.676-.204-1.375-.345-2.115-.345-2.154 0-4.076.935-5.426 2.405V32.91c0-2.78-2.253-5.03-5.03-5.03-1.512 0-2.852.68-3.773 1.734v-2.74c0-2.778-2.252-5.03-5.03-5.03-2.776 0-5.027 2.252-5.027 5.03v3.196c-.906-1.323-2.424-2.19-4.147-2.19-2.78 0-5.03 2.25-5.03 5.03v6.662c-.922-1.142-2.315-1.888-3.896-1.888-2.78 0-5.03 2.252-5.03 5.03V77.19c-.754 15.653 5.375 17.16 5.375 17.16h34.375c2.936-4.067 4.178-7.97 4.666-11.028h.09v-.595z"/><path fill="none" stroke="#515151" stroke-width="2" stroke-linecap="round" stroke-miterlimit="10" d="M92.588 83.323v-34.44c-.674-.205-1.375-.346-2.113-.346-4.088 0-7.396 3.312-7.396 7.396v12.994"/><path fill="none" stroke="#515151" stroke-linecap="round" stroke-miterlimit="10" d="M67.488 94.352c-.063-.76-.1-1.533-.1-2.313 0-12.28 8.254-22.235 18.434-22.235"/><path fill="none" stroke="#515151" stroke-width="2" stroke-linecap="round" stroke-miterlimit="10" d="M56.887 38.094V60.13M66.145 29.97v30.16M76.168 29.073V60.13"/><path fill="none" stroke="#515151" stroke-linecap="round" stroke-miterlimit="10" d="M80.083 35.8h-3.915M80.083 47.87h-3.915M70.057 32.532h-3.912M60.8 37.685h-3.913M60.8 50.383h-3.913M51.793 47.87H47.88M51.793 55.663H47.88M70.057 46.33h-3.912"/><path fill="none" d="M81.204 59.16c-.63.082-4.074.44-8.967 1.89-2.45.72-5.284 1.77-8.242 3.196-2.92 1.5-6.025 3.332-8.627 5.704-2.697 2.28-4.768 4.994-6.267 7.56-1.392 2.57-2.3 5.03-2.66 7.022-.563 2.07-.506 3.61-.594 4.74-.047 1.12-.07 1.76-.07 1.76l25.48-1.984.064-.797c.057-.49-.03-1.28.236-1.985.29-1.586 1.063-3.053 2.422-4.21.61-.63 1.596-1.16 2.56-1.69 1.046-.488 2.16-.932 3.212-1.234 2.094-.628 3.578-.75 2.934-.687l-1.48-19.283z"/><path fill="#FFF" d="M72.793 70.15l-.865.33c-.55.216-1.3.58-2.216.993-1.77.904-4.11 2.213-5.957 3.92-1.965 1.63-3.32 3.594-4.203 5.076-.466.735-.642 1.395-.86 1.84l-.3.702 2.453.385.268-.633c.2-.395.348-1 .77-1.65.79-1.32 1.985-3.064 3.733-4.508 1.632-1.52 3.744-2.697 5.344-3.518.838-.37 1.52-.707 2.02-.906l.797-.3-.984-1.73zM80.15 68.092l.386 1.897s-.246.042-.617.112c-.372.078-.862.188-1.358.293-.97.254-1.943.514-1.943.514l-.73-1.817s1.054-.283 2.11-.555c.533-.115 1.068-.232 1.47-.32.407-.074.68-.126.68-.126zM57.688 85.49l2.517.16s-.045.188-.11.474-.176.666-.168 1.053l-.082 1.54-2.548.103s.047-.83.092-1.662c-.007-.416.108-.832.18-1.145.074-.315.118-.522.118-.522z"/><g><path fill="none" d="M46.394 72.272c.353.23 2.22 1.56 5.403 2.766 1.593.61 3.557 1.16 5.796 1.49 2.26.268 4.798.373 7.4-.14 2.593-.4 5.132-1.41 7.31-2.57 2.13-1.214 3.96-2.57 5.262-3.84 1.445-1.238 2.29-2.373 2.975-3.15.652-.788 1.027-1.236 1.027-1.236l-13.442-10.31s-.174.2-.482.545c-.305.332-.71.94-1.237 1.324-1.038 1.014-2.245 1.718-3.558 1.926-.65.17-1.426.1-2.192.042-.782-.133-1.572-.325-2.25-.59-1.373-.51-2.16-1.107-1.81-.856l-10.202 14.6z"/><path fill="#FFF" d="M56.684 68.212l.604.163c.39.098.96.178 1.632.304 1.37.164 3.243.297 5.1-.085 1.874-.27 3.642-1.063 4.906-1.727.644-.315 1.103-.717 1.46-.93.343-.238.54-.372.54-.372l-.966-1.406-.49.332c-.318.192-.732.56-1.305.837-1.13.586-2.694 1.295-4.357 1.53-1.648.348-3.336.223-4.573.08-.616-.12-1.134-.19-1.49-.278l-.553-.152-.508 1.702zM51.963 66.312l.886-1.55s.144.085.36.205l.822.412c.612.266 1.23.525 1.23.525l-.674 1.646s-.67-.278-1.335-.572c-.323-.16-.65-.323-.892-.446-.237-.134-.397-.22-.397-.22zM72.67 64.103l-1.127-1.274.322-.293c.195-.175.463-.398.678-.682l.91-1.077 1.29 1.1s-.49.58-.983 1.16c-.232.302-.523.55-.738.74-.21.196-.352.325-.352.325z"/></g><g><path fill="none" d="M75.958 56.92l-3.895 1.95c-2.356 1.168-5.51 2.706-8.656 4.176-3.14 1.468-6.294 2.87-8.506 3.736l-1.44.54-.917.3c-.21.03-.21.065-.228.07l2.596 15.92s.202-.044.578-.122c.355-.08.97-.215 1.575-.387.487-.156 1.08-.35 1.757-.568.588-.22 1.25-.47 1.974-.738 2.765-1.086 6.12-2.588 9.437-4.135 3.312-1.547 6.562-3.133 8.996-4.338 2.44-1.223 4.066-2.04 4.066-2.04L75.958 56.92z"/><path fill="#FFF" d="M73.395 66.313s-3.44 1.693-6.91 3.313c-3.464 1.64-6.98 3.122-6.98 3.122l.626 1.488s3.56-1.504 7.037-3.148c3.487-1.627 6.936-3.326 6.936-3.326l-.708-1.45zM78.206 63.908l.726 1.442-2.752 1.374-.717-1.445M57.4 73.588l.584 1.504-1.46.547-1.503.49-.45-1.548 1.413-.465c.708-.263 1.416-.53 1.416-.53z"/></g><g fill="#FFF" stroke="#FFF" stroke-width="6" stroke-miterlimit="10"><path d="M40.578 86.956c-.467 2.488-1.308 7.492-1.92 12.637 1.384-1.38 3.713-3.316 6.05-3.64 3.673-.505 4.78 1.68 4.228 5.075-.463 2.828-2.397 9.473-.083 8.984 1.324-.268 3.202-2.992 4.026-5.656.212-.625 2.125.3 1.932.754-1.335 3.586-3.767 8.172-8.436 9.154-4.216.88-5.224-1.492-5.233-4.04 0-2.17.785-6.66.933-7.444.226-1.137.028-1.96-1.124-1.674-.78.19-1.936 1.074-2.848 2.176-.546 4.37-1.03 8.266-1.377 11.63-.082.946-7.227 2.483-6.984.534 1.126-9.127 2.966-21.71 4.063-28.58 1.32-1.203 6.677-1.217 6.772.09z"/><path d="M69.32 100.22c-1.012 3.16-4.65 5.15-9.464 5.09.513 2.18 2.355 2.907 5.367 2.534 2.384-.285 5.96-1.797 7.562-6.227.21-.625 2.125.3 1.97.707-2.442 6.373-6.16 9.012-11.257 9.67-7.227.95-10.412-2.736-10.604-7.217-.256-5.875 3.88-10.44 9.94-11.19 5.44-.663 7.786 3.097 6.486 6.634zm-9.623 2.39c2.433-.25 3.67-2.078 3.86-3.467.137-.867-.123-1.514-.76-1.512-1.53 0-2.846 2.18-3.1 4.98z"/><path d="M88.977 86.717c-.338 5.574-3.902 10.275-10.016 12.818-.372 4.09.737 6.275 3.587 5.97 1.924-.224 4.867-1.394 6.592-6.18.18-.536 2.01.4 1.89.76-1.826 4.972-4.31 9.183-10.607 9.452-6.508.3-8.04-5.27-7.473-13.514.432-6.14 2.357-12.23 5.977-14.982 4.234-3.217 10.474-1.14 10.05 5.677zm-8.44 2.012c-.44 2.058-1.062 4.95-1.33 7.028 1.878-1.193 3.4-4.338 4.005-6.76.613-2.637.563-5.18-.48-5.035-.878.12-1.61 2.22-2.196 4.766z"/><path d="M105.252 84.48c-.338 5.573-3.902 10.272-10.016 12.815-.373 4.09.736 6.277 3.586 5.97 1.924-.222 4.867-1.394 6.592-6.18.182-.534 2.01.403 1.89.76-1.825 4.972-4.308 9.185-10.606 9.454-6.508.3-8.04-5.274-7.473-13.517.432-6.14 2.357-12.23 5.977-14.98 4.234-3.22 10.474-1.142 10.05 5.676zm-8.44 2.01c-.44 2.058-1.062 4.952-1.33 7.03 1.878-1.195 3.4-4.338 4.005-6.76.613-2.637.563-5.182-.48-5.037-.878.12-1.608 2.22-2.196 4.766z"/><path d="M122.52 99.03c1.996-.02 4.143-1.72 5.184-4.967.213-.625 2.12.26 1.934.754-2.152 5.994-5.89 6.637-8.9 6.71-1.852 1.997-4.365 3.194-7.162 3.58-4.924.677-8.893-1.286-8.21-8.355.59-6.246 4.94-9.865 10.08-10.53 7.812-.99 10.015 6.064 7.074 12.808zm-10.242-3.358c-.328 2.555-.69 5.795 1.73 5.46.54-.073 1.05-.397 1.408-.874-.84-1.158-.162-3.037 1.252-3.273.656-3.58.47-7.082-1.61-6.754-1.497.25-2.384 2.456-2.78 5.442z"/></g><path fill="none" stroke="#434347" stroke-width="2" stroke-miterlimit="10" d="M127.704 94.063c-1.04 3.248-3.188 4.945-5.184 4.967 2.94-6.744.738-13.797-7.076-12.807-5.14.664-9.49 4.283-10.078 10.53-.018.185-.02.354-.03.532-1.733 4.613-4.616 5.762-6.513 5.98-2.85.307-3.96-1.88-3.586-5.97 6.113-2.544 9.678-7.243 10.016-12.817.424-6.818-5.816-8.896-10.05-5.676-3.62 2.752-5.546 8.84-5.978 14.98-.137 1.99-.148 3.82.002 5.455-.033.025-.074.043-.088.086-1.726 4.787-4.67 5.957-6.593 6.18-2.85.307-3.96-1.88-3.586-5.97 6.114-2.542 9.68-7.243 10.017-12.817.424-6.818-5.816-8.895-10.05-5.676-3.62 2.752-5.546 8.842-5.978 14.982-.138 1.98-.147 3.8 0 5.426-.077.033-.138.086-.165.168-1.602 4.43-5.178 5.94-7.562 6.227-3.012.373-4.854-.354-5.367-2.535 4.813.06 8.452-1.928 9.464-5.088 1.3-3.537-1.047-7.297-6.484-6.633-5.908.73-9.974 5.088-9.94 10.748-.003.008-.014.01-.017.02-.825 2.664-2.703 5.39-4.027 5.656-2.314.49-.38-6.155.083-8.983.553-3.395-.555-5.58-4.228-5.074-2.337.322-4.666 2.258-6.05 3.64.612-5.146 1.453-10.15 1.92-12.638-.095-1.307-5.45-1.293-6.773-.09-1.097 6.87-2.937 19.453-4.063 28.58-.242 1.95 6.902.412 6.984-.535.346-3.363.83-7.258 1.377-11.63.912-1.1 2.066-1.983 2.848-2.175 1.153-.287 1.35.537 1.125 1.674-.147.784-.933 5.272-.933 7.442.01 2.55 1.018 4.92 5.233 4.04 3.513-.737 5.76-3.517 7.224-6.374 1.304 2.904 4.452 4.822 9.897 4.105 4.354-.563 7.7-2.58 10.104-7.125 1.005 3.078 3.095 4.84 6.82 4.668 5.126-.22 7.722-3.047 9.497-6.77 1.02 3 3.105 4.702 6.78 4.532 4.722-.2 7.3-2.62 9.063-5.914 1.133 3.29 4.213 4.215 7.813 3.72 2.797-.384 5.31-1.58 7.162-3.58 3.01-.07 6.748-.714 8.9-6.708.188-.493-1.718-1.378-1.93-.753zM96.81 86.49c.59-2.546 1.32-4.646 2.196-4.767 1.043-.145 1.094 2.4.48 5.037-.604 2.422-2.127 5.564-4.004 6.76.268-2.078.892-4.973 1.33-7.03zm-16.274 2.24c.586-2.548 1.318-4.647 2.195-4.767 1.044-.145 1.095 2.398.48 5.035-.603 2.422-2.126 5.566-4.003 6.76.268-2.078.89-4.97 1.33-7.03zm-17.738 8.9c.637 0 .896.646.76 1.513-.19 1.39-1.428 3.217-3.86 3.467.253-2.8 1.57-4.98 3.1-4.98zm53.87-.645c-1.414.236-2.092 2.115-1.252 3.273-.36.477-.867.8-1.408.875-2.422.334-2.06-2.906-1.73-5.46.396-2.987 1.283-5.194 2.78-5.442 2.08-.327 2.267 3.175 1.61 6.755z"/><linearGradient id="f" gradientUnits="userSpaceOnUse" x1="94.711" y1="31.413" x2="107.517" y2="31.413"><stop offset="0" stop-color="#F79D2A"/><stop offset="1" stop-color="#FFCD2E"/></linearGradient><path opacity=".5" fill="none" stroke="url(#f)" stroke-width="4" stroke-linecap="round" stroke-miterlimit="10" d="M96.71 19.586s12.19 5.536 7.888 23.653"/><linearGradient id="g" gradientUnits="userSpaceOnUse" x1="106.338" y1="25.758" x2="116.658" y2="25.758"><stop offset="0" stop-color="#F79D2A"/><stop offset="1" stop-color="#FFCD2E"/></linearGradient><path opacity=".5" fill="none" stroke="url(#g)" stroke-width="4" stroke-linecap="round" stroke-miterlimit="10" d="M108.338 17.27s8.746 3.975 5.66 16.976"/><linearGradient id="h" gradientUnits="userSpaceOnUse" x1="663.971" y1="313.562" x2="676.778" y2="313.562" gradientTransform="rotate(-177.44 345.305 195.795)"><stop offset="0" stop-color="#F79D2A"/><stop offset="1" stop-color="#FFCD2E"/></linearGradient><path opacity=".5" fill="none" stroke="url(#h)" stroke-width="4" stroke-linecap="round" stroke-miterlimit="10" d="M29.62 75.852s-11.933-6.068-6.837-23.98"/><linearGradient id="i" gradientUnits="userSpaceOnUse" x1="675.599" y1="307.907" x2="685.918" y2="307.907" gradientTransform="rotate(-177.44 345.305 195.795)"><stop offset="0" stop-color="#F79D2A"/><stop offset="1" stop-color="#FFCD2E"/></linearGradient><path opacity=".5" fill="none" stroke="url(#i)" stroke-width="4" stroke-linecap="round" stroke-miterlimit="10" d="M17.903 77.653S9.34 73.3 12.996 60.446"/></svg>